<?xml version="1.0" encoding="UTF-8"?>
<!DOCTYPE svg PUBLIC "-//W3C//DTD SVG 1.1//EN" "http://www.w3.org/Graphics/SVG/1.1/DTD/svg11.dtd">
<!-- Creator: CorelDRAW -->
<svg xmlns="http://www.w3.org/2000/svg" xml:space="preserve" width="513px" height="514px" version="1.1" style="shape-rendering:geometricPrecision; text-rendering:geometricPrecision; image-rendering:optimizeQuality; fill-rule:evenodd; clip-rule:evenodd"
viewBox="0 0 513 514.28"
 xmlns:xlink="http://www.w3.org/1999/xlink"
 xmlns:xodm="http://www.corel.com/coreldraw/odm/2003">
 <defs>
  <style type="text/css">
   <![CDATA[
    .str0 {stroke:white;stroke-width:0.9;stroke-miterlimit:22.9256}
    .fil2 {fill:none}
    .fil0 {fill:white}
    .fil1 {fill:white;fill-rule:nonzero}
   ]]>
  </style>
 </defs>
 <g id="Camada_x0020_1">
  <metadata id="CorelCorpID_0Corel-Layer"/>
  <g id="_1986037984432">
   <path class="fil0 str0" d="M214.49 336.73l25.06 -42.24 -24.45 0 0 -59.93 60.28 0 39.73 -66.43 -0.48 -166.4 -60.63 109.37c12.49,8.22 20.8,22.84 20.8,39.49 0,25.69 -19.76,46.51 -44.13,46.51 -8.56,0 -16.56,-2.57 -23.33,-7.02l-94.91 147.18 102.06 -0.53z"/>
   <polygon class="fil1 str0" points="342.8,446.11 342.8,291.13 415.9,291.13 415.9,237.82 217.78,237.82 217.37,291.13 287.17,291.13 287.17,446.11 "/>
   <path class="fil2 str0" d="M194.29 144.37c2.81,-18.49 18.03,-32.63 36.38,-32.63 20.36,0 36.86,17.39 36.86,38.85 0,21.46 -16.5,38.85 -36.86,38.85 -18.34,0 -33.57,-14.12 -36.38,-32.62"/>
   <rect class="fil0 str0" x="15.66" y="145.94" width="211.81" height="9.67"/>
   <ellipse class="fil0 str0" cx="230.67" cy="150.59" rx="29.87" ry="31.49"/>
   <path class="fil2 str0" d="M31.34 156.68c-2.28,6.34 -8.11,10.85 -14.92,10.85 -8.82,0 -15.97,-7.54 -15.97,-16.83 0,-9.3 7.15,-16.84 15.97,-16.84 6.87,0 12.72,4.59 14.98,11"/>
   <ellipse class="fil0 str0" cx="16.42" cy="150.7" rx="12.94" ry="13.64"/>
   <rect class="fil0 str0" x="357.7" y="479.3" width="144.32" height="6.59"/>
   <path class="fil2 str0" d="M379.27 486.61c-2.1,13.77 -13.43,24.29 -27.1,24.29 -15.16,0 -27.44,-12.95 -27.44,-28.93 0,-15.99 12.28,-28.94 27.44,-28.94 13.87,0 25.33,10.83 27.19,24.91"/>
   <polygon class="fil0 str0" points="347.92,296.93 422.08,296.93 422.08,305.78 355.46,305.78 356.24,459.65 347.83,459.64 "/>
   <ellipse class="fil0 str0" cx="352.2" cy="481.97" rx="24.59" ry="25.92"/>
   <path class="fil2 str0" d="M491.5 486.61c1.55,4.33 5.52,7.4 10.17,7.4 6.01,0 10.88,-5.14 10.88,-11.47 0,-6.33 -4.87,-11.47 -10.88,-11.47 -4.68,0 -8.67,3.13 -10.2,7.49"/>
   <ellipse class="fil0 str0" cx="501.67" cy="482.54" rx="8.82" ry="9.29"/>
   <path class="fil2 str0" d="M417.22 305.05c1.29,3.6 4.6,6.16 8.47,6.16 5.01,0 9.07,-4.28 9.07,-9.56 0,-5.27 -4.06,-9.55 -9.07,-9.55 -3.9,0 -7.22,2.6 -8.5,6.24"/>
   <ellipse class="fil0 str0" cx="425.69" cy="301.65" rx="7.35" ry="7.74"/>
   <g>
    <path class="fil0 str0" d="M287.17 450.02l59.73 0 0 0.24c-8.64,0.73 -16.2,5.69 -21.02,13.02l-38.71 0 0 -13.26z"/>
    <path class="fil0 str0" d="M287.4 469.92l36.88 0c-0.79,2.03 -1.38,4.16 -1.76,6.38l-35.12 0 0 -6.38z"/>
    <path class="fil0 str0" d="M287.29 482.16l34.75 0c0.01,3.03 0.42,5.95 1.19,8.72l-35.94 0 0 -8.72z"/>
    <path class="fil0 str0" d="M287.4 494.07l36.88 0c0.42,1.09 0.9,2.15 1.44,3.18l-38.32 0 0 -3.18z"/>
    <path class="fil0 str0" d="M287.4 499.6l39.66 0c0.66,1.05 1.38,2.06 2.16,3.02l-41.82 0 0 -3.02z"/>
    <path class="fil0 str0" d="M287.44 505.35l44.26 0c1.24,1.22 2.58,2.32 4.01,3.31l-48.27 0 0 -3.31z"/>
    <path class="fil0 str0" d="M287.32 510.35l51.15 0c4.11,2.23 8.78,3.48 13.71,3.48l-64.86 0 0 -3.48z"/>
   </g>
  </g>
 </g>
</svg>
